<mxfile host="app.diagrams.net" modified="2023-09-13T04:26:48.093Z" agent="Mozilla/5.0 (Macintosh; Intel Mac OS X 10_15_7) AppleWebKit/537.36 (KHTML, like Gecko) Chrome/116.0.0.0 Safari/537.36" etag="qIz0JcwBsWMxi-ybayLT" version="21.7.4" type="google">
  <diagram name="Página-1" id="Ah1kP6qSxY0XQQMTi5j-">
    <mxGraphModel grid="1" page="1" gridSize="10" guides="1" tooltips="1" connect="1" arrows="1" fold="1" pageScale="1" pageWidth="827" pageHeight="1169" math="0" shadow="0">
      <root>
        <mxCell id="0" />
        <mxCell id="1" parent="0" />
        <mxCell id="iSFHboFUfjSZhan3UKbQ-5" value="" style="rounded=0;whiteSpace=wrap;html=1;" vertex="1" parent="1">
          <mxGeometry x="-320" y="-130" width="1530" height="2110" as="geometry" />
        </mxCell>
        <mxCell id="NSO9RZgK3nJ-kuGxCHl1-29" style="edgeStyle=orthogonalEdgeStyle;rounded=0;orthogonalLoop=1;jettySize=auto;html=1;" edge="1" parent="1" source="iSFHboFUfjSZhan3UKbQ-2" target="NSO9RZgK3nJ-kuGxCHl1-25">
          <mxGeometry relative="1" as="geometry" />
        </mxCell>
        <mxCell id="iSFHboFUfjSZhan3UKbQ-2" value="" style="ellipse;whiteSpace=wrap;html=1;aspect=fixed;fillColor=#000000;" vertex="1" parent="1">
          <mxGeometry x="-185" y="50" width="65" height="65" as="geometry" />
        </mxCell>
        <mxCell id="iSFHboFUfjSZhan3UKbQ-6" value="" style="endArrow=none;html=1;rounded=0;exitX=0.235;exitY=1;exitDx=0;exitDy=0;exitPerimeter=0;" edge="1" parent="1" source="iSFHboFUfjSZhan3UKbQ-5">
          <mxGeometry width="50" height="50" relative="1" as="geometry">
            <mxPoint x="40" y="1790" as="sourcePoint" />
            <mxPoint x="40" y="-40" as="targetPoint" />
          </mxGeometry>
        </mxCell>
        <mxCell id="iSFHboFUfjSZhan3UKbQ-7" value="" style="endArrow=none;html=1;rounded=0;" edge="1" parent="1">
          <mxGeometry width="50" height="50" relative="1" as="geometry">
            <mxPoint x="400" y="1980" as="sourcePoint" />
            <mxPoint x="400" y="-40" as="targetPoint" />
          </mxGeometry>
        </mxCell>
        <mxCell id="iSFHboFUfjSZhan3UKbQ-9" value="" style="endArrow=none;html=1;rounded=0;exitX=0;exitY=0.087;exitDx=0;exitDy=0;exitPerimeter=0;entryX=1;entryY=0.044;entryDx=0;entryDy=0;entryPerimeter=0;" edge="1" parent="1" target="iSFHboFUfjSZhan3UKbQ-5">
          <mxGeometry width="50" height="50" relative="1" as="geometry">
            <mxPoint x="-320" y="-38.74000000000011" as="sourcePoint" />
            <mxPoint x="850" y="-40" as="targetPoint" />
          </mxGeometry>
        </mxCell>
        <mxCell id="iSFHboFUfjSZhan3UKbQ-10" value="&lt;span style=&quot;font-size: 36px;&quot;&gt;Proceso de Reserva&lt;/span&gt;" style="text;html=1;align=center;verticalAlign=middle;resizable=0;points=[];autosize=1;strokeColor=none;fillColor=none;" vertex="1" parent="1">
          <mxGeometry x="-270" y="-110" width="350" height="60" as="geometry" />
        </mxCell>
        <mxCell id="iSFHboFUfjSZhan3UKbQ-11" value="&lt;font style=&quot;font-size: 24px;&quot;&gt;Usuario&lt;/font&gt;" style="text;html=1;align=center;verticalAlign=middle;resizable=0;points=[];autosize=1;strokeColor=none;fillColor=none;" vertex="1" parent="1">
          <mxGeometry x="-189.69" y="-20" width="110" height="40" as="geometry" />
        </mxCell>
        <mxCell id="iSFHboFUfjSZhan3UKbQ-12" value="&lt;font style=&quot;font-size: 24px;&quot;&gt;Vista&lt;/font&gt;" style="text;html=1;align=center;verticalAlign=middle;resizable=0;points=[];autosize=1;strokeColor=none;fillColor=none;" vertex="1" parent="1">
          <mxGeometry x="185" y="-20" width="80" height="40" as="geometry" />
        </mxCell>
        <mxCell id="iSFHboFUfjSZhan3UKbQ-13" value="&lt;span style=&quot;font-size: 24px;&quot;&gt;Sistema&lt;/span&gt;" style="text;html=1;align=center;verticalAlign=middle;resizable=0;points=[];autosize=1;strokeColor=none;fillColor=none;" vertex="1" parent="1">
          <mxGeometry x="572.5" y="-20" width="110" height="40" as="geometry" />
        </mxCell>
        <mxCell id="NSO9RZgK3nJ-kuGxCHl1-84" style="edgeStyle=orthogonalEdgeStyle;rounded=0;orthogonalLoop=1;jettySize=auto;html=1;" edge="1" parent="1" source="iSFHboFUfjSZhan3UKbQ-15" target="NSO9RZgK3nJ-kuGxCHl1-6">
          <mxGeometry relative="1" as="geometry" />
        </mxCell>
        <mxCell id="iSFHboFUfjSZhan3UKbQ-15" value="&lt;span style=&quot;font-size: 18px;&quot;&gt;Recibe código QR al correo indicando confirmación.&lt;/span&gt;" style="rounded=1;whiteSpace=wrap;html=1;" vertex="1" parent="1">
          <mxGeometry x="-257.5" y="1760" width="250" height="90" as="geometry" />
        </mxCell>
        <mxCell id="NSO9RZgK3nJ-kuGxCHl1-50" style="edgeStyle=orthogonalEdgeStyle;rounded=0;orthogonalLoop=1;jettySize=auto;html=1;" edge="1" parent="1" source="iSFHboFUfjSZhan3UKbQ-24" target="NSO9RZgK3nJ-kuGxCHl1-49">
          <mxGeometry relative="1" as="geometry" />
        </mxCell>
        <mxCell id="iSFHboFUfjSZhan3UKbQ-24" value="&lt;font style=&quot;font-size: 18px;&quot;&gt;Validar Datos Ingresados&lt;/font&gt;" style="rounded=1;whiteSpace=wrap;html=1;" vertex="1" parent="1">
          <mxGeometry x="486.25" y="1000" width="225" height="60" as="geometry" />
        </mxCell>
        <mxCell id="NSO9RZgK3nJ-kuGxCHl1-36" style="edgeStyle=orthogonalEdgeStyle;rounded=0;orthogonalLoop=1;jettySize=auto;html=1;entryX=0;entryY=0.5;entryDx=0;entryDy=0;" edge="1" parent="1" source="iSFHboFUfjSZhan3UKbQ-25" target="NSO9RZgK3nJ-kuGxCHl1-14">
          <mxGeometry relative="1" as="geometry">
            <Array as="points">
              <mxPoint x="-140" y="705" />
            </Array>
          </mxGeometry>
        </mxCell>
        <mxCell id="iSFHboFUfjSZhan3UKbQ-25" value="&lt;font style=&quot;font-size: 18px;&quot;&gt;Seleccionar Tipo de Habitación&lt;/font&gt;" style="rounded=1;whiteSpace=wrap;html=1;" vertex="1" parent="1">
          <mxGeometry x="-247.19" y="550" width="210" height="60" as="geometry" />
        </mxCell>
        <mxCell id="iSFHboFUfjSZhan3UKbQ-28" value="" style="endArrow=none;html=1;rounded=0;exitX=0;exitY=0.087;exitDx=0;exitDy=0;exitPerimeter=0;entryX=1.001;entryY=0.076;entryDx=0;entryDy=0;entryPerimeter=0;" edge="1" parent="1" target="iSFHboFUfjSZhan3UKbQ-5">
          <mxGeometry width="50" height="50" relative="1" as="geometry">
            <mxPoint x="-320" y="31" as="sourcePoint" />
            <mxPoint x="730" y="30" as="targetPoint" />
          </mxGeometry>
        </mxCell>
        <mxCell id="NSO9RZgK3nJ-kuGxCHl1-92" style="edgeStyle=orthogonalEdgeStyle;rounded=0;orthogonalLoop=1;jettySize=auto;html=1;entryX=0.5;entryY=0;entryDx=0;entryDy=0;" edge="1" parent="1" source="_MTvQOKjZ6nwCnj4aem7-2" target="NSO9RZgK3nJ-kuGxCHl1-85">
          <mxGeometry relative="1" as="geometry" />
        </mxCell>
        <mxCell id="_MTvQOKjZ6nwCnj4aem7-2" value="&lt;font style=&quot;font-size: 18px;&quot;&gt;Guardado de Reserva&lt;/font&gt;" style="rounded=1;whiteSpace=wrap;html=1;" vertex="1" parent="1">
          <mxGeometry x="530" y="1630" width="240" height="70" as="geometry" />
        </mxCell>
        <mxCell id="NSO9RZgK3nJ-kuGxCHl1-80" style="edgeStyle=orthogonalEdgeStyle;rounded=0;orthogonalLoop=1;jettySize=auto;html=1;entryX=0;entryY=0.5;entryDx=0;entryDy=0;" edge="1" parent="1" source="_MTvQOKjZ6nwCnj4aem7-15" target="_MTvQOKjZ6nwCnj4aem7-2">
          <mxGeometry relative="1" as="geometry">
            <Array as="points">
              <mxPoint x="225" y="1665" />
            </Array>
          </mxGeometry>
        </mxCell>
        <mxCell id="_MTvQOKjZ6nwCnj4aem7-15" value="&lt;span style=&quot;font-size: 18px;&quot;&gt;Mostrar Detalle de la Reserva&lt;/span&gt;" style="rounded=1;whiteSpace=wrap;html=1;" vertex="1" parent="1">
          <mxGeometry x="110" y="1530" width="230" height="60" as="geometry" />
        </mxCell>
        <mxCell id="NSO9RZgK3nJ-kuGxCHl1-6" value="" style="ellipse;html=1;shape=endState;fillColor=#000000;strokeColor=#000000;" vertex="1" parent="1">
          <mxGeometry x="-167.5" y="1890" width="70" height="70" as="geometry" />
        </mxCell>
        <mxCell id="NSO9RZgK3nJ-kuGxCHl1-40" style="edgeStyle=orthogonalEdgeStyle;rounded=0;orthogonalLoop=1;jettySize=auto;html=1;entryX=0.5;entryY=0;entryDx=0;entryDy=0;" edge="1" parent="1" source="NSO9RZgK3nJ-kuGxCHl1-14" target="NSO9RZgK3nJ-kuGxCHl1-38">
          <mxGeometry relative="1" as="geometry">
            <mxPoint x="-128.59500000000025" y="820" as="targetPoint" />
            <Array as="points">
              <mxPoint x="230" y="780" />
              <mxPoint x="-128" y="780" />
            </Array>
          </mxGeometry>
        </mxCell>
        <mxCell id="NSO9RZgK3nJ-kuGxCHl1-14" value="&lt;span style=&quot;font-size: 18px;&quot;&gt;Mostrar catálogo con información de la habitación seleccionada&lt;/span&gt;" style="rounded=1;whiteSpace=wrap;html=1;" vertex="1" parent="1">
          <mxGeometry x="80" y="660" width="290" height="90" as="geometry" />
        </mxCell>
        <mxCell id="NSO9RZgK3nJ-kuGxCHl1-71" style="edgeStyle=orthogonalEdgeStyle;rounded=0;orthogonalLoop=1;jettySize=auto;html=1;" edge="1" parent="1" source="NSO9RZgK3nJ-kuGxCHl1-17" target="NSO9RZgK3nJ-kuGxCHl1-39">
          <mxGeometry relative="1" as="geometry">
            <Array as="points">
              <mxPoint x="-145" y="1350" />
            </Array>
          </mxGeometry>
        </mxCell>
        <mxCell id="NSO9RZgK3nJ-kuGxCHl1-17" value="&lt;font style=&quot;font-size: 18px;&quot;&gt;Click Confirmar Pago&lt;/font&gt;" style="rounded=1;whiteSpace=wrap;html=1;" vertex="1" parent="1">
          <mxGeometry x="-250.00000000000006" y="1260" width="210" height="60" as="geometry" />
        </mxCell>
        <mxCell id="NSO9RZgK3nJ-kuGxCHl1-32" style="edgeStyle=orthogonalEdgeStyle;rounded=0;orthogonalLoop=1;jettySize=auto;html=1;entryX=1;entryY=0.5;entryDx=0;entryDy=0;" edge="1" parent="1" source="NSO9RZgK3nJ-kuGxCHl1-21" target="NSO9RZgK3nJ-kuGxCHl1-24">
          <mxGeometry relative="1" as="geometry">
            <Array as="points">
              <mxPoint x="205" y="400" />
            </Array>
          </mxGeometry>
        </mxCell>
        <mxCell id="NSO9RZgK3nJ-kuGxCHl1-21" value="&lt;font style=&quot;font-size: 18px;&quot;&gt;Se muestra Catálogo de Habitaciones&lt;/font&gt;" style="rounded=1;whiteSpace=wrap;html=1;" vertex="1" parent="1">
          <mxGeometry x="100" y="130" width="250" height="65" as="geometry" />
        </mxCell>
        <mxCell id="NSO9RZgK3nJ-kuGxCHl1-62" style="edgeStyle=orthogonalEdgeStyle;rounded=0;orthogonalLoop=1;jettySize=auto;html=1;entryX=0.5;entryY=0;entryDx=0;entryDy=0;" edge="1" parent="1" source="NSO9RZgK3nJ-kuGxCHl1-22" target="NSO9RZgK3nJ-kuGxCHl1-58">
          <mxGeometry relative="1" as="geometry" />
        </mxCell>
        <mxCell id="NSO9RZgK3nJ-kuGxCHl1-22" value="&lt;font style=&quot;font-size: 18px;&quot;&gt;Verificar Disponibilidad de Habitaciones&lt;/font&gt;" style="rounded=1;whiteSpace=wrap;html=1;" vertex="1" parent="1">
          <mxGeometry x="492.5" y="420" width="257.5" height="70" as="geometry" />
        </mxCell>
        <mxCell id="NSO9RZgK3nJ-kuGxCHl1-35" style="edgeStyle=orthogonalEdgeStyle;rounded=0;orthogonalLoop=1;jettySize=auto;html=1;" edge="1" parent="1" source="NSO9RZgK3nJ-kuGxCHl1-23" target="iSFHboFUfjSZhan3UKbQ-25">
          <mxGeometry relative="1" as="geometry" />
        </mxCell>
        <mxCell id="NSO9RZgK3nJ-kuGxCHl1-23" value="&lt;span style=&quot;font-size: 18px;&quot;&gt;Mostrar Disponibilidad de&amp;nbsp; Habitaciones&lt;/span&gt;" style="rounded=1;whiteSpace=wrap;html=1;" vertex="1" parent="1">
          <mxGeometry x="80" y="545" width="280" height="70" as="geometry" />
        </mxCell>
        <mxCell id="NSO9RZgK3nJ-kuGxCHl1-61" style="edgeStyle=orthogonalEdgeStyle;rounded=0;orthogonalLoop=1;jettySize=auto;html=1;entryX=0;entryY=0.5;entryDx=0;entryDy=0;" edge="1" parent="1" source="NSO9RZgK3nJ-kuGxCHl1-24" target="NSO9RZgK3nJ-kuGxCHl1-22">
          <mxGeometry relative="1" as="geometry">
            <Array as="points">
              <mxPoint x="-142" y="455" />
            </Array>
          </mxGeometry>
        </mxCell>
        <mxCell id="NSO9RZgK3nJ-kuGxCHl1-24" value="&lt;span style=&quot;font-size: 18px;&quot;&gt;Seleccionar Rango de Fechas&lt;/span&gt;" style="rounded=1;whiteSpace=wrap;html=1;" vertex="1" parent="1">
          <mxGeometry x="-281.56" y="370" width="275.62" height="60" as="geometry" />
        </mxCell>
        <mxCell id="NSO9RZgK3nJ-kuGxCHl1-30" style="edgeStyle=orthogonalEdgeStyle;rounded=0;orthogonalLoop=1;jettySize=auto;html=1;" edge="1" parent="1" source="NSO9RZgK3nJ-kuGxCHl1-25" target="NSO9RZgK3nJ-kuGxCHl1-27">
          <mxGeometry relative="1" as="geometry" />
        </mxCell>
        <mxCell id="NSO9RZgK3nJ-kuGxCHl1-25" value="&lt;span style=&quot;font-size: 18px;&quot;&gt;Ingresa a la aplicación&lt;/span&gt;" style="rounded=1;whiteSpace=wrap;html=1;" vertex="1" parent="1">
          <mxGeometry x="-257.5" y="160" width="210" height="60" as="geometry" />
        </mxCell>
        <mxCell id="NSO9RZgK3nJ-kuGxCHl1-31" style="edgeStyle=orthogonalEdgeStyle;rounded=0;orthogonalLoop=1;jettySize=auto;html=1;entryX=0;entryY=0.5;entryDx=0;entryDy=0;" edge="1" parent="1" source="NSO9RZgK3nJ-kuGxCHl1-27" target="NSO9RZgK3nJ-kuGxCHl1-21">
          <mxGeometry relative="1" as="geometry" />
        </mxCell>
        <mxCell id="NSO9RZgK3nJ-kuGxCHl1-27" value="&lt;span style=&quot;font-size: 18px;&quot;&gt;Click en Reservar&lt;/span&gt;" style="rounded=1;whiteSpace=wrap;html=1;" vertex="1" parent="1">
          <mxGeometry x="-257.5" y="270" width="210" height="60" as="geometry" />
        </mxCell>
        <mxCell id="NSO9RZgK3nJ-kuGxCHl1-46" style="edgeStyle=orthogonalEdgeStyle;rounded=0;orthogonalLoop=1;jettySize=auto;html=1;entryX=0;entryY=0.5;entryDx=0;entryDy=0;" edge="1" parent="1" source="NSO9RZgK3nJ-kuGxCHl1-38" target="NSO9RZgK3nJ-kuGxCHl1-41">
          <mxGeometry relative="1" as="geometry" />
        </mxCell>
        <mxCell id="NSO9RZgK3nJ-kuGxCHl1-38" value="&lt;font style=&quot;font-size: 18px;&quot;&gt;Click &quot;Confirmar Datos de Reserva&quot;&lt;/font&gt;" style="rounded=1;whiteSpace=wrap;html=1;" vertex="1" parent="1">
          <mxGeometry x="-247.19" y="830" width="237.5" height="50" as="geometry" />
        </mxCell>
        <mxCell id="NSO9RZgK3nJ-kuGxCHl1-69" style="edgeStyle=orthogonalEdgeStyle;rounded=0;orthogonalLoop=1;jettySize=auto;html=1;" edge="1" parent="1" source="NSO9RZgK3nJ-kuGxCHl1-39" target="NSO9RZgK3nJ-kuGxCHl1-68">
          <mxGeometry relative="1" as="geometry" />
        </mxCell>
        <mxCell id="NSO9RZgK3nJ-kuGxCHl1-39" value="&lt;font style=&quot;font-size: 18px;&quot;&gt;Validar Confirmación de Pago&lt;/font&gt;" style="rounded=1;whiteSpace=wrap;html=1;" vertex="1" parent="1">
          <mxGeometry x="492.5" y="1320" width="270" height="60" as="geometry" />
        </mxCell>
        <mxCell id="NSO9RZgK3nJ-kuGxCHl1-45" style="edgeStyle=orthogonalEdgeStyle;rounded=0;orthogonalLoop=1;jettySize=auto;html=1;entryX=1;entryY=0.5;entryDx=0;entryDy=0;" edge="1" parent="1" source="NSO9RZgK3nJ-kuGxCHl1-41" target="NSO9RZgK3nJ-kuGxCHl1-43">
          <mxGeometry relative="1" as="geometry">
            <Array as="points">
              <mxPoint x="230" y="965" />
            </Array>
          </mxGeometry>
        </mxCell>
        <mxCell id="NSO9RZgK3nJ-kuGxCHl1-41" value="&lt;font style=&quot;font-size: 18px;&quot;&gt;Métodos de Pago Disponibles&lt;/font&gt;" style="rounded=1;whiteSpace=wrap;html=1;" vertex="1" parent="1">
          <mxGeometry x="105" y="820" width="240" height="70" as="geometry" />
        </mxCell>
        <mxCell id="NSO9RZgK3nJ-kuGxCHl1-48" style="edgeStyle=orthogonalEdgeStyle;rounded=0;orthogonalLoop=1;jettySize=auto;html=1;entryX=0;entryY=0.5;entryDx=0;entryDy=0;" edge="1" parent="1" source="NSO9RZgK3nJ-kuGxCHl1-43" target="iSFHboFUfjSZhan3UKbQ-24">
          <mxGeometry relative="1" as="geometry">
            <Array as="points">
              <mxPoint x="-134" y="1030" />
              <mxPoint x="432" y="1030" />
            </Array>
          </mxGeometry>
        </mxCell>
        <mxCell id="NSO9RZgK3nJ-kuGxCHl1-43" value="&lt;font style=&quot;font-size: 18px;&quot;&gt;Ingresar datos del Método de Pago&lt;/font&gt;" style="rounded=1;whiteSpace=wrap;html=1;" vertex="1" parent="1">
          <mxGeometry x="-250" y="930" width="232.81" height="70" as="geometry" />
        </mxCell>
        <mxCell id="NSO9RZgK3nJ-kuGxCHl1-44" value="&lt;span style=&quot;font-size: 24px;&quot;&gt;Administrador&lt;/span&gt;" style="text;html=1;align=center;verticalAlign=middle;resizable=0;points=[];autosize=1;strokeColor=none;fillColor=none;" vertex="1" parent="1">
          <mxGeometry x="960" y="-20" width="170" height="40" as="geometry" />
        </mxCell>
        <mxCell id="NSO9RZgK3nJ-kuGxCHl1-89" style="edgeStyle=orthogonalEdgeStyle;rounded=0;orthogonalLoop=1;jettySize=auto;html=1;entryX=0.5;entryY=0;entryDx=0;entryDy=0;" edge="1" parent="1" source="NSO9RZgK3nJ-kuGxCHl1-47" target="NSO9RZgK3nJ-kuGxCHl1-17">
          <mxGeometry relative="1" as="geometry" />
        </mxCell>
        <mxCell id="NSO9RZgK3nJ-kuGxCHl1-47" value="&lt;font style=&quot;font-size: 18px;&quot;&gt;Mostrar detalle de Pago Inicial (30% del total)&lt;/font&gt;" style="rounded=1;whiteSpace=wrap;html=1;" vertex="1" parent="1">
          <mxGeometry x="90" y="1169" width="240" height="70" as="geometry" />
        </mxCell>
        <mxCell id="NSO9RZgK3nJ-kuGxCHl1-65" style="edgeStyle=orthogonalEdgeStyle;rounded=0;orthogonalLoop=1;jettySize=auto;html=1;" edge="1" parent="1" source="NSO9RZgK3nJ-kuGxCHl1-49" target="NSO9RZgK3nJ-kuGxCHl1-51">
          <mxGeometry relative="1" as="geometry">
            <Array as="points">
              <mxPoint x="695" y="1134" />
            </Array>
          </mxGeometry>
        </mxCell>
        <mxCell id="NSO9RZgK3nJ-kuGxCHl1-73" value="false" style="edgeLabel;html=1;align=center;verticalAlign=middle;resizable=0;points=[];" connectable="0" vertex="1" parent="NSO9RZgK3nJ-kuGxCHl1-65">
          <mxGeometry x="-0.4216" relative="1" as="geometry">
            <mxPoint as="offset" />
          </mxGeometry>
        </mxCell>
        <mxCell id="NSO9RZgK3nJ-kuGxCHl1-88" style="edgeStyle=orthogonalEdgeStyle;rounded=0;orthogonalLoop=1;jettySize=auto;html=1;entryX=0.5;entryY=0;entryDx=0;entryDy=0;" edge="1" parent="1" source="NSO9RZgK3nJ-kuGxCHl1-49" target="NSO9RZgK3nJ-kuGxCHl1-47">
          <mxGeometry relative="1" as="geometry" />
        </mxCell>
        <mxCell id="NSO9RZgK3nJ-kuGxCHl1-90" value="true" style="edgeLabel;html=1;align=center;verticalAlign=middle;resizable=0;points=[];" connectable="0" vertex="1" parent="NSO9RZgK3nJ-kuGxCHl1-88">
          <mxGeometry x="-0.3096" y="2" relative="1" as="geometry">
            <mxPoint x="40" y="-2" as="offset" />
          </mxGeometry>
        </mxCell>
        <mxCell id="NSO9RZgK3nJ-kuGxCHl1-49" value="" style="rhombus;whiteSpace=wrap;html=1;" vertex="1" parent="1">
          <mxGeometry x="563.75" y="1099" width="70" height="70" as="geometry" />
        </mxCell>
        <mxCell id="NSO9RZgK3nJ-kuGxCHl1-51" value="&lt;font style=&quot;font-size: 18px;&quot;&gt;Datos Inválidos&lt;/font&gt;" style="rounded=1;whiteSpace=wrap;html=1;" vertex="1" parent="1">
          <mxGeometry x="610" y="1210" width="170" height="50" as="geometry" />
        </mxCell>
        <mxCell id="NSO9RZgK3nJ-kuGxCHl1-57" value="&lt;font style=&quot;font-size: 18px;&quot;&gt;No hay Habitaciones Disponibles&lt;/font&gt;" style="rounded=1;whiteSpace=wrap;html=1;" vertex="1" parent="1">
          <mxGeometry x="620" y="650" width="207" height="58" as="geometry" />
        </mxCell>
        <mxCell id="NSO9RZgK3nJ-kuGxCHl1-63" style="edgeStyle=orthogonalEdgeStyle;rounded=0;orthogonalLoop=1;jettySize=auto;html=1;entryX=0.5;entryY=0;entryDx=0;entryDy=0;" edge="1" parent="1" source="NSO9RZgK3nJ-kuGxCHl1-58" target="NSO9RZgK3nJ-kuGxCHl1-57">
          <mxGeometry relative="1" as="geometry">
            <Array as="points">
              <mxPoint x="724" y="580" />
            </Array>
          </mxGeometry>
        </mxCell>
        <mxCell id="NSO9RZgK3nJ-kuGxCHl1-75" value="false" style="edgeLabel;html=1;align=center;verticalAlign=middle;resizable=0;points=[];" connectable="0" vertex="1" parent="NSO9RZgK3nJ-kuGxCHl1-63">
          <mxGeometry x="-0.4259" y="-2" relative="1" as="geometry">
            <mxPoint x="1" as="offset" />
          </mxGeometry>
        </mxCell>
        <mxCell id="NSO9RZgK3nJ-kuGxCHl1-64" value="true" style="edgeStyle=orthogonalEdgeStyle;rounded=0;orthogonalLoop=1;jettySize=auto;html=1;" edge="1" parent="1" source="NSO9RZgK3nJ-kuGxCHl1-58" target="NSO9RZgK3nJ-kuGxCHl1-23">
          <mxGeometry relative="1" as="geometry" />
        </mxCell>
        <mxCell id="NSO9RZgK3nJ-kuGxCHl1-58" value="" style="rhombus;whiteSpace=wrap;html=1;" vertex="1" parent="1">
          <mxGeometry x="586.25" y="545" width="70" height="70" as="geometry" />
        </mxCell>
        <mxCell id="NSO9RZgK3nJ-kuGxCHl1-66" value="&lt;font style=&quot;font-size: 18px;&quot;&gt;Error al Reservar&lt;/font&gt;" style="rounded=1;whiteSpace=wrap;html=1;" vertex="1" parent="1">
          <mxGeometry x="633.75" y="1540" width="180" height="50" as="geometry" />
        </mxCell>
        <mxCell id="NSO9RZgK3nJ-kuGxCHl1-70" value="false" style="edgeStyle=orthogonalEdgeStyle;rounded=0;orthogonalLoop=1;jettySize=auto;html=1;entryX=0.5;entryY=0;entryDx=0;entryDy=0;" edge="1" parent="1" source="NSO9RZgK3nJ-kuGxCHl1-68" target="NSO9RZgK3nJ-kuGxCHl1-66">
          <mxGeometry relative="1" as="geometry">
            <Array as="points">
              <mxPoint x="724" y="1465" />
            </Array>
          </mxGeometry>
        </mxCell>
        <mxCell id="NSO9RZgK3nJ-kuGxCHl1-83" style="edgeStyle=orthogonalEdgeStyle;rounded=0;orthogonalLoop=1;jettySize=auto;html=1;entryX=0.5;entryY=0;entryDx=0;entryDy=0;" edge="1" parent="1" source="NSO9RZgK3nJ-kuGxCHl1-68" target="_MTvQOKjZ6nwCnj4aem7-15">
          <mxGeometry relative="1" as="geometry" />
        </mxCell>
        <mxCell id="NSO9RZgK3nJ-kuGxCHl1-91" value="true" style="edgeLabel;html=1;align=center;verticalAlign=middle;resizable=0;points=[];" connectable="0" vertex="1" parent="NSO9RZgK3nJ-kuGxCHl1-83">
          <mxGeometry x="-0.5567" y="-1" relative="1" as="geometry">
            <mxPoint x="-1" as="offset" />
          </mxGeometry>
        </mxCell>
        <mxCell id="NSO9RZgK3nJ-kuGxCHl1-68" value="" style="rhombus;whiteSpace=wrap;html=1;" vertex="1" parent="1">
          <mxGeometry x="592.5" y="1430" width="70" height="70" as="geometry" />
        </mxCell>
        <mxCell id="NSO9RZgK3nJ-kuGxCHl1-93" style="edgeStyle=orthogonalEdgeStyle;rounded=0;orthogonalLoop=1;jettySize=auto;html=1;entryX=1;entryY=0.5;entryDx=0;entryDy=0;" edge="1" parent="1" source="NSO9RZgK3nJ-kuGxCHl1-85" target="iSFHboFUfjSZhan3UKbQ-15">
          <mxGeometry relative="1" as="geometry">
            <Array as="points">
              <mxPoint x="1055" y="1805" />
            </Array>
          </mxGeometry>
        </mxCell>
        <mxCell id="NSO9RZgK3nJ-kuGxCHl1-85" value="&lt;span style=&quot;font-size: 18px;&quot;&gt;Generación de Reportes de las Reservas&lt;/span&gt;" style="rounded=1;whiteSpace=wrap;html=1;" vertex="1" parent="1">
          <mxGeometry x="930" y="1684" width="250" height="70" as="geometry" />
        </mxCell>
        <mxCell id="NSO9RZgK3nJ-kuGxCHl1-86" value="" style="endArrow=none;html=1;rounded=0;" edge="1" parent="1">
          <mxGeometry width="50" height="50" relative="1" as="geometry">
            <mxPoint x="870" y="1980" as="sourcePoint" />
            <mxPoint x="870" y="-40" as="targetPoint" />
          </mxGeometry>
        </mxCell>
      </root>
    </mxGraphModel>
  </diagram>
</mxfile>
